<svg width="30" height="30" viewBox="0 0 30 30" fill="none" xmlns="http://www.w3.org/2000/svg">
<path fill-rule="evenodd" clip-rule="evenodd" d="M8.0505 7.45224C8.6715 7.45224 9.1755 7.98133 9.1755 8.63326C9.1755 9.28518 8.6715 9.81428 8.0505 9.81428H6.639C4.218 9.81428 2.25 11.8787 2.25 14.4187V22.1111C2.25 24.6605 4.224 26.7328 6.6525 26.7328H23.3625C25.7805 26.7328 27.75 24.6652 27.75 22.1268V14.436C27.75 11.8866 25.7745 9.81428 23.349 9.81428H21.951C21.33 9.81428 20.826 9.28518 20.826 8.63326C20.826 7.98133 21.33 7.45224 21.951 7.45224H23.349C27.0165 7.45224 30 10.5859 30 14.436V22.1268C30 31.0345 19 29.4828 15.0012 30C11 29.4828 0 31.0345 0 22.1111V14.4187C0 10.5764 2.9775 7.45224 6.639 7.45224H8.0505ZM15.0012 0C15.6222 0 16.1262 0.529097 16.1262 1.18102L16.125 17.2838L18.5787 14.6982C19.0167 14.2352 19.7277 14.2352 20.1687 14.695C20.6082 15.1548 20.6097 15.9028 20.1717 16.3658L15.8078 20.9649C15.7652 21.0109 15.719 21.0533 15.6698 21.0916L15.7977 20.9749C15.7494 21.0263 15.697 21.0725 15.6412 21.1132C15.6072 21.1378 15.5727 21.1602 15.5369 21.1805C15.5197 21.1904 15.5016 21.2 15.4833 21.2091C15.4506 21.2255 15.417 21.2402 15.3826 21.2532C15.3654 21.2596 15.3482 21.2656 15.3309 21.2712C15.2886 21.2849 15.2452 21.296 15.2008 21.3044C15.1909 21.3061 15.1817 21.3077 15.1726 21.3092C15.1368 21.3151 15.0995 21.3191 15.0617 21.3212C15.0413 21.3224 15.0213 21.3229 15.0012 21.3229L14.9415 21.3182L14.8486 21.3121C14.842 21.3112 14.8354 21.3102 14.8288 21.3091L15.0012 21.3229C14.9342 21.3229 14.8677 21.3167 14.8025 21.3044C14.7573 21.296 14.714 21.285 14.6717 21.2714C14.6548 21.2658 14.6382 21.26 14.6218 21.2539C14.5873 21.241 14.5532 21.2262 14.5201 21.2097C14.5 21.1997 14.4799 21.1889 14.4602 21.1776C14.4325 21.1615 14.4058 21.1445 14.3798 21.1264C14.3621 21.1141 14.3443 21.1009 14.3269 21.0871C14.284 21.0534 14.2436 21.0165 14.2058 20.9769L14.2047 20.9749L9.8307 16.3658C9.3927 15.9028 9.3942 15.1548 9.8337 14.695C10.2747 14.2352 10.9857 14.2352 11.4237 14.6982L13.875 17.2838L13.8762 1.18102C13.8762 0.529097 14.3802 0 15.0012 0Z" fill="#86DB78"/>
</svg>
