<?xml version="1.0" encoding="UTF-8"?>
<!DOCTYPE svg PUBLIC "-//W3C//DTD SVG 1.1//EN" "http://www.w3.org/Graphics/SVG/1.1/DTD/svg11.dtd">
<svg xmlns="http://www.w3.org/2000/svg" version="1.1" width="158px" height="158px" style="shape-rendering:geometricPrecision; text-rendering:geometricPrecision; image-rendering:optimizeQuality; fill-rule:evenodd; clip-rule:evenodd" xmlns:xlink="http://www.w3.org/1999/xlink">
<g><path style="opacity:0.608" fill="#85db77" d="M 27.5,7.5 C 61.5065,7.16679 95.5065,7.50013 129.5,8.5C 130.918,12.5702 130.751,16.5702 129,20.5C 127.509,22.0037 125.676,22.8371 123.5,23C 93.5,23.6667 63.5,23.6667 33.5,23C 30.2328,23.0631 28.0661,21.5631 27,18.5C 26.3219,14.7789 26.4886,11.1122 27.5,7.5 Z"/></g>
<g><path style="opacity:0.529" fill="#85db77" d="M 28.5,26.5 C 61.835,26.3333 95.1683,26.5 128.5,27C 130.569,29.5343 133.235,30.7009 136.5,30.5C 136.824,34.5546 136.491,38.5546 135.5,42.5C 133.885,43.154 132.218,43.654 130.5,44C 95.8333,44.6667 61.1667,44.6667 26.5,44C 24.7818,43.654 23.1151,43.154 21.5,42.5C 20.5091,38.5546 20.1758,34.5546 20.5,30.5C 24.0188,30.7407 26.6855,29.4074 28.5,26.5 Z"/></g>
<g><path style="opacity:0.865" fill="#85db77" d="M 29.5,47.5 C 62.1684,47.3334 94.835,47.5 127.5,48C 130.208,49.0695 132.875,50.2361 135.5,51.5C 136.5,84.1599 136.833,116.827 136.5,149.5C 97.8333,149.5 59.1667,149.5 20.5,149.5C 20.1668,116.827 20.5001,84.1599 21.5,51.5C 24.3584,50.3391 27.025,49.0057 29.5,47.5 Z M 90.5,72.5 C 92.7925,72.2436 94.9592,72.5769 97,73.5C 96.7145,75.7064 96.5479,77.8731 96.5,80C 92.0927,80.2083 88.0927,81.5416 84.5,84C 81.854,84.4974 79.1873,84.6641 76.5,84.5C 76.5,81.8333 76.5,79.1667 76.5,76.5C 78.8568,76.6633 81.1902,76.4966 83.5,76C 85.7133,74.3838 88.0466,73.2172 90.5,72.5 Z M 74.5,109.5 C 78.0964,122.994 73.0964,128.328 59.5,125.5C 59.335,122.15 59.5017,118.817 60,115.5C 65.3688,114.551 70.2022,112.551 74.5,109.5 Z"/></g>
</svg>
