<svg width="30" height="30" viewBox="0 0 30 30" fill="none" xmlns="http://www.w3.org/2000/svg">
<path d="M27.5613 0.0867384L8.81309 5.62358C8.43251 5.74314 8.09999 5.98096 7.86384 6.30248C7.6277 6.624 7.50024 7.01245 7.5 7.41138V22.7293C6.88602 22.5802 6.25679 22.5031 5.625 22.4996C2.51953 22.4996 0 24.179 0 26.2498C0 28.3206 2.51953 30 5.625 30C8.73047 30 11.25 28.3206 11.25 26.2498V12.5568L26.25 8.16201V18.9796C25.6361 18.8301 25.0068 18.7528 24.375 18.7493C21.2695 18.7493 18.75 20.4287 18.75 22.4996C18.75 24.5704 21.2695 26.2498 24.375 26.2498C27.4805 26.2498 30 24.571 30 22.4996V1.87337C29.9997 1.579 29.9302 1.28883 29.7969 1.02634C29.6637 0.763858 29.4705 0.536432 29.2331 0.362469C28.9956 0.188507 28.7205 0.0728958 28.4301 0.0249937C28.1397 -0.0229084 27.8421 -0.00175619 27.5613 0.0867384Z" fill="#86DB78"/>
</svg>
