<svg width="22" height="21" viewBox="0 0 22 21" fill="none" xmlns="http://www.w3.org/2000/svg">
<path d="M20.7098 0.0025456C18.6167 0.148327 14.4566 0.678952 11.8884 2.60833C11.7112 2.74145 11.6107 2.97817 11.6107 3.22567V20.2821C11.6107 20.8235 12.0931 21.1657 12.4999 20.9144C15.1422 19.2822 18.9635 18.8369 20.853 18.715C21.4981 18.6733 21.9996 18.0386 21.9996 17.2779V1.44161C22 0.611452 21.4133 -0.0462044 20.7098 0.0025456ZM10.1112 2.60833C7.5434 0.678952 3.38326 0.148796 1.29021 0.0025456C0.586667 -0.0462044 0 0.611452 0 1.44161V17.2783C0 18.0396 0.501493 18.6743 1.1466 18.7155C3.03684 18.8374 6.8601 19.2832 9.5024 20.9163C9.90802 21.1671 10.3889 20.8254 10.3889 20.2854V3.21723C10.3889 2.96926 10.2888 2.74192 10.1112 2.60833Z" fill="white"/>
</svg>
