<svg width="17" height="19" viewBox="0 0 17 19" fill="none" xmlns="http://www.w3.org/2000/svg">
<g clip-path="url(#clip0)">
<path d="M6.00543 0C7.05132 0 7.94564 0.766309 7.94564 1.6625V5.36791C8.70037 4.76154 10.1488 4.6871 11.0864 5.60166C12.097 5.07144 13.4335 5.52199 13.8451 6.21211C16.0206 5.87909 17 7.02651 17 8.90625C17 9.00815 16.991 9.39891 16.9914 9.5C16.9988 11.7997 15.6161 12.3535 15.2951 14.0916C15.2151 14.5248 14.7687 14.8438 14.2457 14.8438H6.65218L6.65213 14.8437C5.83906 14.8433 5.0633 14.4501 4.71108 13.7874C4.13583 12.7155 2.54013 10.2467 1.28793 9.79688C0.482419 9.50753 0.000354352 9.00333 1.85284e-07 8.3125C-0.000619606 7.04254 1.55382 6.16936 2.96207 6.67527C3.33213 6.80823 3.70007 6.98372 4.06521 7.20048V1.6625C4.06521 0.792285 4.97467 0 6.00543 0ZM6.02083 15.4375H14.5208C15.1076 15.4375 15.5833 15.8362 15.5833 16.3281V18.1094C15.5833 18.6013 15.1076 19 14.5208 19H6.02083C5.43402 19 4.95833 18.6013 4.95833 18.1094V16.3281C4.95833 15.8362 5.43402 15.4375 6.02083 15.4375ZM13.4583 16.4766C12.9693 16.4766 12.5729 16.8088 12.5729 17.2188C12.5729 17.6287 12.9693 17.9609 13.4583 17.9609C13.9473 17.9609 14.3438 17.6287 14.3438 17.2188C14.3438 16.8088 13.9473 16.4766 13.4583 16.4766Z" fill="white"/>
</g>
<defs>
<clipPath id="clip0">
<rect width="17" height="19" fill="white"/>
</clipPath>
</defs>
</svg>
