<svg width="17" height="18" viewBox="0 0 17 18" fill="none" xmlns="http://www.w3.org/2000/svg">
<g clip-path="url(#clip0)">
<path d="M7.17188 0H9.82812C10.2697 0 10.625 0.376172 10.625 0.84375V6.75H13.5369C14.1279 6.75 14.4234 7.50586 14.0051 7.94883L8.95488 13.2996C8.70586 13.5633 8.29746 13.5633 8.04844 13.2996L2.9916 7.94883C2.57324 7.50586 2.86875 6.75 3.45977 6.75H6.375V0.84375C6.375 0.376172 6.73027 0 7.17188 0ZM17 13.2188V17.1562C17 17.6238 16.6447 18 16.2031 18H0.796875C0.355273 18 0 17.6238 0 17.1562V13.2188C0 12.7512 0.355273 12.375 0.796875 12.375H5.66777L7.29473 14.0977C7.96211 14.8043 9.03789 14.8043 9.70527 14.0977L11.3322 12.375H16.2031C16.6447 12.375 17 12.7512 17 13.2188ZM12.8828 16.3125C12.8828 15.9258 12.584 15.6094 12.2188 15.6094C11.8535 15.6094 11.5547 15.9258 11.5547 16.3125C11.5547 16.6992 11.8535 17.0156 12.2188 17.0156C12.584 17.0156 12.8828 16.6992 12.8828 16.3125ZM15.0078 16.3125C15.0078 15.9258 14.709 15.6094 14.3438 15.6094C13.9785 15.6094 13.6797 15.9258 13.6797 16.3125C13.6797 16.6992 13.9785 17.0156 14.3438 17.0156C14.709 17.0156 15.0078 16.6992 15.0078 16.3125Z" fill="white"/>
</g>
<defs>
<clipPath id="clip0">
<rect width="17" height="18" fill="white"/>
</clipPath>
</defs>
</svg>
