<svg width="17" height="18" viewBox="0 0 17 18" fill="none" xmlns="http://www.w3.org/2000/svg">
<path d="M14.875 0H2.125C0.951823 0 0 0.755859 0 1.6875V16.3125C0 17.2441 0.951823 18 2.125 18H14.875C16.0482 18 17 17.2441 17 16.3125V1.6875C17 0.755859 16.0482 0 14.875 0ZM6.375 1.125H10.625C11.0146 1.125 11.3333 1.37812 11.3333 1.6875C11.3333 1.99688 11.0146 2.25 10.625 2.25H6.375C5.98542 2.25 5.66667 1.99688 5.66667 1.6875C5.66667 1.37812 5.98542 1.125 6.375 1.125ZM8.5 5.625C10.0628 5.625 11.3333 6.63398 11.3333 7.875C11.3333 9.11602 10.0628 10.125 8.5 10.125C6.93724 10.125 5.66667 9.11602 5.66667 7.875C5.66667 6.63398 6.93724 5.625 8.5 5.625ZM13.4583 13.95C13.4583 14.3227 13.0156 14.625 12.4667 14.625H4.53333C3.98438 14.625 3.54167 14.3227 3.54167 13.95V13.275C3.54167 12.157 4.87422 11.25 6.51667 11.25H6.73802C7.28255 11.4293 7.87578 11.5312 8.5 11.5312C9.12422 11.5312 9.72188 11.4293 10.262 11.25H10.4833C12.1258 11.25 13.4583 12.157 13.4583 13.275V13.95Z" fill="white"/>
</svg>
