<svg width="298" height="238" viewBox="0 0 298 238" fill="none" xmlns="http://www.w3.org/2000/svg">
<path d="M146.673 41.3998C150.805 41.5965 154.828 42.7901 158.395 44.878C161.962 46.9659 164.968 49.8858 167.154 53.387C169.34 56.8882 170.641 60.8659 170.945 64.9789C171.25 69.0918 170.548 73.2169 168.902 77C171.284 74.2108 173.035 70.9423 174.035 67.4172C175.035 63.8922 175.261 60.1936 174.698 56.5736C174.134 52.9536 172.795 49.4972 170.77 46.4402C168.745 43.3832 166.083 40.7974 162.965 38.859C159.847 36.9207 156.347 35.6754 152.702 35.2082C149.058 34.7409 145.355 35.0625 141.847 36.1512C138.338 37.2399 135.107 39.07 132.372 41.5168C129.637 43.9635 127.464 46.9694 126 50.3295C128.53 47.3622 131.71 45.0139 135.294 43.4656C138.879 41.9174 142.772 41.2106 146.673 41.3998Z" fill="#3F3D56"/>
<path d="M253.663 236.712C264.869 233.352 276.782 229.848 285.669 221.861C293.611 214.724 298.972 203.825 295.682 193.122C292.399 182.44 282.565 175.317 272.412 171.775C266.653 169.765 260.628 168.651 254.606 167.775C248.059 166.823 241.483 166.043 234.911 165.293C208.298 162.254 181.584 160.398 154.771 159.724C141.54 159.391 128.312 159.399 115.079 159.591C103.262 159.762 90.8158 159.758 79.8528 154.743C71.3276 150.844 63.59 143.75 61.2146 134.428C58.4725 123.666 63.5302 112.708 70.7855 104.914C74.6098 100.806 79.0795 97.3481 83.6903 94.1688C88.6924 90.7197 93.8689 87.5148 99.1575 84.5232C109.574 78.634 120.463 73.622 131.714 69.5392C137.264 67.5245 142.896 65.7864 148.577 64.1829C153.375 62.8289 158.187 61.4729 162.823 59.6281C171.786 56.0619 180.311 50.021 182.59 40.1175C184.75 30.7313 181.108 20.5419 174.724 13.5691C167.337 5.50204 156.2 1.96571 145.523 1.39354C133.536 0.751178 121.825 3.74622 110.559 7.54732C98.5419 11.6015 86.7842 16.2631 74.5136 19.5469C62.3456 22.8001 49.9422 25.1018 37.416 26.4313C31.284 27.0832 24.9667 27.8192 18.7983 27.3202C13.6285 26.9019 8.48519 25.3841 4.67517 21.7212C1.40828 18.5805 -0.537842 14.2641 0.131228 9.70894C0.252755 8.8816 1.51167 9.23334 1.39089 10.0556C0.576445 15.6005 4.35185 20.7099 9.00419 23.3272C14.3811 26.3521 20.9239 26.3563 26.9102 26.0103C39.8902 25.2276 52.7824 23.3671 65.453 20.4478C77.9033 17.6089 89.9089 13.5505 101.901 9.21516C113.29 5.09773 124.934 1.0791 137.102 0.187281C147.66 -0.586544 158.766 0.948999 167.963 6.45725C176.047 11.2983 181.991 19.3715 183.885 28.6357C185.736 37.6885 183.173 46.8003 176.308 53.1177C169.201 59.6586 159.457 62.455 150.375 65.0305C138.857 68.2971 127.585 72.1155 116.675 77.0735C105.617 82.0848 95.0108 88.0375 84.9753 94.8656C75.2884 101.474 65.7286 109.79 62.6649 121.579C61.2378 127.071 61.5013 132.896 63.8892 138.083C66.0124 142.696 69.5092 146.575 73.5828 149.568C83.3021 156.708 95.5519 158.174 107.292 158.32C120.478 158.483 133.664 158.039 146.854 158.255C173.735 158.696 200.56 160.329 227.331 163.156C234.039 163.865 240.739 164.648 247.43 165.506C253.449 166.278 259.487 167.045 265.404 168.417C275.926 170.855 286.163 175.542 292.703 184.448C295.605 188.308 297.403 192.883 297.905 197.683C298.363 202.693 297.134 207.712 294.866 212.168C289.844 222.032 280.438 228.306 270.449 232.428C265.099 234.636 259.549 236.309 254.011 237.969C253.204 238.211 252.859 236.953 253.663 236.712L253.663 236.712Z" fill="#ADADAD"/>
<path d="M113.209 84.2432C110.507 84.2429 107.915 83.1857 106.004 81.3043C104.093 79.4228 103.02 76.8711 103.02 74.2104C103.02 72.3958 103.021 71.0083 103.024 70.811C103.11 64.5954 104.699 58.4896 107.662 53C102.795 59.5593 100.119 67.4456 100.004 75.5678C100.001 75.7651 99.9999 77.1526 100 78.9672C100 81.628 101.074 84.1796 102.985 86.0611C104.896 87.9426 107.487 88.9997 110.19 89C112.41 88.9992 114.57 88.2847 116.341 86.9652C118.111 85.6457 119.396 83.7932 120 81.6892C118.134 83.3365 115.716 84.2461 113.209 84.2432Z" fill="#3F3D56"/>
<path d="M140.541 141.593C138.021 141.593 135.601 140.605 133.805 138.842C132.008 137.078 130.979 134.68 130.938 132.166C130.821 124.878 130.76 115.899 130.76 114.873C130.759 112.377 131.119 109.893 131.829 107.499L131.826 107.499C132.246 106.297 132.753 105.128 133.343 104C131.531 106.409 130.09 109.073 129.066 111.906L129.069 111.907C128.359 114.3 127.998 116.784 128 119.28C128 120.307 128.061 129.285 128.177 136.573C128.218 139.088 129.248 141.485 131.045 143.249C132.841 145.012 135.26 146.001 137.78 146C139.858 146 141.88 145.327 143.542 144.083C145.204 142.839 146.418 141.091 147 139.1C145.234 140.707 142.93 141.596 140.541 141.593Z" fill="#3F3D56"/>
<path d="M137.944 190.336C136.5 189.686 135.222 188.697 134.21 187.449C133.199 186.2 132.482 184.725 132.116 183.141C131.75 181.557 131.745 179.907 132.102 178.32C132.459 176.734 133.167 175.255 134.171 174C133.007 174.879 132.037 176.004 131.325 177.3C130.613 178.596 130.177 180.034 130.043 181.519C129.91 183.003 130.084 184.499 130.553 185.909C131.022 187.318 131.776 188.608 132.764 189.694C133.752 190.779 134.952 191.635 136.285 192.204C137.617 192.773 139.051 193.042 140.492 192.995C141.933 192.947 143.348 192.583 144.642 191.926C145.937 191.27 147.081 190.337 148 189.188C146.567 190.271 144.884 190.947 143.12 191.148C141.356 191.35 139.571 191.07 137.944 190.336Z" fill="#3F3D56"/>
<path d="M140 192C144.971 192 149 187.747 149 182.5C149 177.253 144.971 173 140 173C135.029 173 131 177.253 131 182.5C131 187.747 135.029 192 140 192Z" fill="#86DB78"/>
<path d="M138.74 36.0009C119.244 36.1391 103.281 52.0311 103.004 71.5857C103.001 71.7662 103 73.0357 103 74.696C103 77.1305 103.964 79.4652 105.68 81.1867C107.396 82.9081 109.724 83.8754 112.151 83.8757H112.151C113.354 83.8754 114.545 83.6373 115.657 83.1751C116.768 82.7129 117.778 82.0355 118.628 81.1817C119.478 80.3279 120.152 79.3144 120.612 78.1992C121.072 77.0839 121.308 75.8888 121.306 74.682C121.306 73.5525 121.305 72.7708 121.305 72.7228C121.304 69.7007 122.088 66.7304 123.579 64.1042C125.07 61.478 127.217 59.2864 129.808 57.7449C132.4 56.2033 135.346 55.365 138.359 55.3124C141.371 55.2598 144.345 55.9946 146.989 57.4447C149.632 58.8948 151.854 61.0101 153.435 63.5827C155.016 66.1552 155.902 69.0963 156.007 72.1166C156.111 75.1369 155.43 78.1325 154.03 80.8085C152.63 83.4846 150.559 85.7491 148.022 87.3791L148.026 87.383C148.026 87.383 135.001 95.7937 131.03 107.332L131.033 107.333C130.335 109.696 129.981 112.149 129.983 114.614C129.983 115.627 130.042 124.494 130.157 131.691C130.197 134.174 131.209 136.542 132.974 138.283C134.739 140.025 137.116 141.001 139.592 141H139.592C140.836 141 142.068 140.753 143.216 140.274C144.365 139.794 145.408 139.092 146.285 138.207C147.162 137.322 147.855 136.271 148.326 135.116C148.797 133.961 149.035 132.724 149.028 131.476C148.988 124.886 148.966 117.211 148.966 116.654C148.966 109.569 155.78 102.51 161.377 97.9072C167.822 92.6063 172.459 85.3826 174.322 77.2339C174.734 75.5562 174.962 73.8382 175 72.1108C175 67.3467 174.06 62.6297 172.235 58.2315C170.409 53.8334 167.734 49.8411 164.364 46.4845C160.993 43.128 156.994 40.4736 152.596 38.6744C148.198 36.8751 143.489 35.9665 138.74 36.0009Z" fill="#86DB78"/>
</svg>
