<svg width="24" height="23" viewBox="0 0 24 23" fill="none" xmlns="http://www.w3.org/2000/svg">
<path d="M21.4286 0H2.57143C1.15179 0 0 1.10379 0 2.46429V20.5357C0 21.8962 1.15179 23 2.57143 23H21.4286C22.8482 23 24 21.8962 24 20.5357V2.46429C24 1.10379 22.8482 0 21.4286 0ZM18.8089 8.15268C18.8196 8.29643 18.8196 8.44531 18.8196 8.58906C18.8196 13.0402 15.2839 18.169 8.82321 18.169C6.83036 18.169 4.98214 17.6145 3.42857 16.6596C3.7125 16.6904 3.98571 16.7007 4.275 16.7007C5.91964 16.7007 7.43036 16.1667 8.63571 15.2632C7.09286 15.2324 5.79643 14.2621 5.35179 12.9272C5.89286 13.0042 6.38036 13.0042 6.9375 12.8656C5.33036 12.5525 4.125 11.1971 4.125 9.55937V9.5183C4.59107 9.76987 5.1375 9.92388 5.71071 9.94442C5.2288 9.63722 4.83374 9.22047 4.56079 8.73135C4.28784 8.24223 4.14548 7.69597 4.14643 7.14129C4.14643 6.51496 4.31786 5.93996 4.62321 5.44196C6.35357 7.48527 8.95179 8.82009 11.8661 8.96384C11.3679 6.67924 13.1518 4.82589 15.2946 4.82589C16.3071 4.82589 17.2179 5.23147 17.8607 5.88862C18.6536 5.74487 19.4143 5.4625 20.0893 5.07746C19.8268 5.85781 19.275 6.51496 18.5464 6.9308C19.2536 6.85893 19.9393 6.66897 20.5714 6.40714C20.0946 7.07969 19.4946 7.67522 18.8089 8.15268Z" fill="white"/>
</svg>
