<svg width="17" height="18" viewBox="0 0 17 18" fill="none" xmlns="http://www.w3.org/2000/svg">
<path d="M15.6181 0.0520431L4.99408 3.37415C4.77842 3.44588 4.58999 3.58858 4.45618 3.78149C4.32236 3.9744 4.25014 4.20747 4.25 4.44683V13.6376C3.90208 13.5481 3.54552 13.5019 3.1875 13.4997C1.42773 13.4997 0 14.5074 0 15.7499C0 16.9924 1.42773 18 3.1875 18C4.94727 18 6.375 16.9924 6.375 15.7499V7.53408L14.875 4.89721V11.3878C14.5271 11.298 14.1705 11.2517 13.8125 11.2496C12.0527 11.2496 10.625 12.2572 10.625 13.4997C10.625 14.7422 12.0527 15.7499 13.8125 15.7499C15.5723 15.7499 17 14.7426 17 13.4997V1.12402C16.9998 0.947398 16.9604 0.773297 16.8849 0.615806C16.8094 0.458315 16.7 0.321859 16.5654 0.217481C16.4308 0.113104 16.275 0.0437375 16.1104 0.0149962C15.9458 -0.013745 15.7772 -0.00105372 15.6181 0.0520431Z" fill="white"/>
</svg>
