<svg width="22" height="18" viewBox="0 0 22 18" fill="none" xmlns="http://www.w3.org/2000/svg">
<path d="M12.3194 0.33005L7.22219 4.50005H1.375C0.615313 4.50005 0 5.00349 0 5.62505V12.375C0 12.9961 0.615313 13.5 1.375 13.5H7.22219L12.3194 17.6696C13.1805 18.3741 14.6667 17.8791 14.6667 16.8741V1.12599C14.6667 0.119581 13.1794 -0.373075 12.3194 0.33005ZM19.3778 5.3963C18.7143 5.09958 17.8773 5.29505 17.5095 5.83927C17.1434 6.38349 17.3857 7.06739 18.0509 7.36786C18.7905 7.70067 19.25 8.32599 19.25 9.00005C19.25 9.67411 18.7905 10.2994 18.0515 10.6318C17.3863 10.9322 17.144 11.6161 17.5101 12.1604C17.8784 12.7069 18.716 12.901 19.3783 12.6033C20.9957 11.8744 22.0006 10.494 22.0006 8.99958C22.0006 7.50521 20.9957 6.12521 19.3778 5.3963Z" fill="white"/>
</svg>
