<svg width="28" height="23" viewBox="0 0 28 23" fill="none" xmlns="http://www.w3.org/2000/svg">
<path d="M27.4149 3.59872C27.0929 2.18218 26.1441 1.06657 24.9394 0.687964C22.7558 0 14 0 14 0C14 0 5.2442 0 3.06058 0.687964C1.8559 1.06662 0.907111 2.18218 0.585087 3.59872C0 6.16628 0 11.5232 0 11.5232C0 11.5232 0 16.8802 0.585087 19.4478C0.907111 20.8643 1.8559 21.9334 3.06058 22.312C5.2442 23 14 23 14 23C14 23 22.7558 23 24.9394 22.312C26.1441 21.9334 27.0929 20.8643 27.4149 19.4478C28 16.8802 28 11.5232 28 11.5232C28 11.5232 28 6.16628 27.4149 3.59872ZM11.1363 16.387V6.65952L18.4545 11.5234L11.1363 16.387Z" fill="white"/>
</svg>
